<mxfile host="app.diagrams.net" modified="2021-01-08T01:14:44.309Z" agent="5.0 (X11; Linux x86_64) AppleWebKit/537.36 (KHTML, like Gecko) Chrome/87.0.4280.66 Safari/537.36" etag="qAhE_8kGUpEooZP5bc_S" version="14.1.8" type="github">
  <diagram id="E9W-rHA-iXpCqaySes-u" name="Page-1">
    <mxGraphModel dx="1105" dy="-5694" grid="1" gridSize="10" guides="1" tooltips="1" connect="1" arrows="1" fold="1" page="1" pageScale="1" pageWidth="250" pageHeight="500" math="0" shadow="0">
      <root>
        <mxCell id="0" />
        <mxCell id="1" parent="0" />
        <mxCell id="ELrHLaRoTietVfv-_7hx-3" value="&lt;font style=&quot;font-size: 30px&quot;&gt;Push to Flink(&lt;/font&gt;&lt;font style=&quot;font-size: 20px&quot;&gt;/api/rules/pushToFlink&lt;/font&gt;&lt;font style=&quot;font-size: 30px&quot;&gt;)&lt;/font&gt;" style="text;html=1;strokeColor=none;fillColor=none;align=center;verticalAlign=middle;whiteSpace=wrap;rounded=0;" vertex="1" parent="1">
          <mxGeometry x="374" y="6510" width="470" height="40" as="geometry" />
        </mxCell>
        <mxCell id="ELrHLaRoTietVfv-_7hx-4" value=":RuleRest&#xa;Controller" style="shape=umlLifeline;perimeter=lifelinePerimeter;container=1;collapsible=0;recursiveResize=0;rounded=0;shadow=0;strokeWidth=1;" vertex="1" parent="1">
          <mxGeometry x="309" y="6590" width="100" height="380" as="geometry" />
        </mxCell>
        <mxCell id="ELrHLaRoTietVfv-_7hx-5" value="" style="points=[];perimeter=orthogonalPerimeter;rounded=0;shadow=0;strokeWidth=1;" vertex="1" parent="ELrHLaRoTietVfv-_7hx-4">
          <mxGeometry x="45" y="70" width="10" height="260" as="geometry" />
        </mxCell>
        <mxCell id="ELrHLaRoTietVfv-_7hx-6" value="dispatch" style="verticalAlign=bottom;startArrow=oval;endArrow=block;startSize=8;shadow=0;strokeWidth=1;" edge="1" parent="ELrHLaRoTietVfv-_7hx-4" target="ELrHLaRoTietVfv-_7hx-5">
          <mxGeometry relative="1" as="geometry">
            <mxPoint x="-15" y="70" as="sourcePoint" />
          </mxGeometry>
        </mxCell>
        <mxCell id="ELrHLaRoTietVfv-_7hx-7" value="findAll" style="verticalAlign=bottom;endArrow=block;entryX=0;entryY=0;shadow=0;strokeWidth=1;" edge="1" parent="1">
          <mxGeometry relative="1" as="geometry">
            <mxPoint x="364" y="6681" as="sourcePoint" />
            <mxPoint x="534" y="6681" as="targetPoint" />
          </mxGeometry>
        </mxCell>
        <mxCell id="ELrHLaRoTietVfv-_7hx-8" value=":RuleRepository" style="shape=umlLifeline;perimeter=lifelinePerimeter;container=1;collapsible=0;recursiveResize=0;rounded=0;shadow=0;strokeWidth=1;" vertex="1" parent="1">
          <mxGeometry x="486.5" y="6590" width="100" height="380" as="geometry" />
        </mxCell>
        <mxCell id="ELrHLaRoTietVfv-_7hx-9" value="" style="points=[];perimeter=orthogonalPerimeter;rounded=0;shadow=0;strokeWidth=1;" vertex="1" parent="ELrHLaRoTietVfv-_7hx-8">
          <mxGeometry x="45" y="70" width="10" height="260" as="geometry" />
        </mxCell>
        <mxCell id="ELrHLaRoTietVfv-_7hx-10" value=":FlinkService" style="shape=umlLifeline;perimeter=lifelinePerimeter;container=1;collapsible=0;recursiveResize=0;rounded=0;shadow=0;strokeWidth=1;" vertex="1" parent="1">
          <mxGeometry x="671" y="6590" width="100" height="380" as="geometry" />
        </mxCell>
        <mxCell id="ELrHLaRoTietVfv-_7hx-11" value="" style="points=[];perimeter=orthogonalPerimeter;rounded=0;shadow=0;strokeWidth=1;" vertex="1" parent="ELrHLaRoTietVfv-_7hx-10">
          <mxGeometry x="45" y="70" width="10" height="260" as="geometry" />
        </mxCell>
        <mxCell id="ELrHLaRoTietVfv-_7hx-12" value="getRulePayload" style="verticalAlign=bottom;endArrow=block;shadow=0;strokeWidth=1;" edge="1" parent="1" source="ELrHLaRoTietVfv-_7hx-11" target="ELrHLaRoTietVfv-_7hx-8">
          <mxGeometry relative="1" as="geometry">
            <mxPoint x="1046.5" y="7039" as="sourcePoint" />
            <mxPoint x="544" y="7039" as="targetPoint" />
          </mxGeometry>
        </mxCell>
        <mxCell id="ELrHLaRoTietVfv-_7hx-13" value=":KafkaTemplate" style="shape=umlLifeline;perimeter=lifelinePerimeter;container=1;collapsible=0;recursiveResize=0;rounded=0;shadow=0;strokeWidth=1;" vertex="1" parent="1">
          <mxGeometry x="856" y="6590" width="100" height="380" as="geometry" />
        </mxCell>
        <mxCell id="ELrHLaRoTietVfv-_7hx-14" value="" style="points=[];perimeter=orthogonalPerimeter;rounded=0;shadow=0;strokeWidth=1;" vertex="1" parent="ELrHLaRoTietVfv-_7hx-13">
          <mxGeometry x="45" y="70" width="10" height="260" as="geometry" />
        </mxCell>
        <mxCell id="ELrHLaRoTietVfv-_7hx-15" value="send" style="verticalAlign=bottom;endArrow=block;shadow=0;strokeWidth=1;" edge="1" parent="1">
          <mxGeometry relative="1" as="geometry">
            <mxPoint x="726" y="6870" as="sourcePoint" />
            <mxPoint x="901" y="6870" as="targetPoint" />
          </mxGeometry>
        </mxCell>
      </root>
    </mxGraphModel>
  </diagram>
</mxfile>
